<svg width="126" height="26" viewBox="0 0 126 26" fill="none" xmlns="http://www.w3.org/2000/svg">
<path opacity="0.7" d="M20.6699 18.485L10.7463 26.0001V19.3617C12.1108 18.3597 18.5611 13.4749 18.5611 13.4749C18.5611 13.4749 22.0344 11.4709 21.042 8.96583C24.5152 12.4729 23.1508 16.4809 20.6699 18.485Z" fill="white"/>
<path d="M20.6095 8.68321L10.7463 1.22296V7.81285C12.1025 8.80754 18.5136 13.6567 18.5136 13.6567C18.5136 13.6567 22.089 15.7704 21.1027 18.2572C24.5548 14.7757 23.0753 10.6726 20.6095 8.68321Z" fill="white"/>
<path opacity="0.7" d="M9.92353 18.485L0 26.0001V19.3617C1.36449 18.3597 7.81478 13.4749 7.81478 13.4749C7.81478 13.4749 11.288 11.4709 10.2957 8.96583C13.7689 12.4729 12.4044 16.4809 9.92353 18.485Z" fill="white"/>
<path d="M9.8632 8.68321L0 1.22296V7.81285C1.35619 8.80754 7.76727 13.6567 7.76727 13.6567C7.76727 13.6567 11.3427 15.7704 10.3564 18.2572C13.8085 14.7757 12.329 10.6726 9.8632 8.68321Z" fill="white"/>
<path d="M35.8745 5.23645C35.1121 5.23645 34.4731 4.99341 33.9574 4.50733C33.4642 3.99915 33.2175 3.36945 33.2175 2.61823C33.2175 1.84491 33.4642 1.21521 33.9574 0.729127C34.4507 0.243042 35.0897 0 35.8745 0C36.6592 0 37.2982 0.243042 37.7915 0.729127C38.2848 1.21521 38.5314 1.84491 38.5314 2.61823C38.5314 3.36945 38.2736 3.99915 37.7579 4.50733C37.2646 4.99341 36.6368 5.23645 35.8745 5.23645ZM33.8565 24.1937C33.7444 24.1937 33.6435 24.1606 33.5539 24.0943C33.4866 24.0059 33.453 23.9065 33.453 23.796V7.52326C33.453 7.41278 33.4866 7.3244 33.5539 7.25812C33.6435 7.16974 33.7444 7.12555 33.8565 7.12555H37.7915C37.9036 7.12555 37.9933 7.16974 38.0606 7.25812C38.1503 7.3244 38.1951 7.41278 38.1951 7.52326V23.796C38.1951 23.9065 38.1503 24.0059 38.0606 24.0943C37.9933 24.1606 37.9036 24.1937 37.7915 24.1937H33.8565Z" fill="white"/>
<path d="M51.2404 6.89356C53.0342 6.89356 54.4803 7.43488 55.579 8.51752C56.6777 9.60016 57.227 11.0695 57.227 12.9254V23.796C57.227 23.9065 57.1821 24.0059 57.0924 24.0943C57.0252 24.1606 56.9355 24.1937 56.8234 24.1937H52.8884C52.7763 24.1937 52.6754 24.1606 52.5857 24.0943C52.5185 24.0059 52.4848 23.9065 52.4848 23.796V13.8865C52.4848 13.0028 52.227 12.2847 51.7113 11.7323C51.218 11.1799 50.5566 10.9038 49.727 10.9038C48.8974 10.9038 48.2248 11.1799 47.7091 11.7323C47.2158 12.2847 46.9692 13.0028 46.9692 13.8865V23.796C46.9692 23.9065 46.9243 24.0059 46.8346 24.0943C46.7674 24.1606 46.6777 24.1937 46.5656 24.1937H42.6306C42.5185 24.1937 42.4176 24.1606 42.3279 24.0943C42.2606 24.0059 42.227 23.9065 42.227 23.796V7.5564C42.227 7.44593 42.2606 7.35755 42.3279 7.29126C42.4176 7.20288 42.5185 7.1587 42.6306 7.1587H46.5656C46.6777 7.1587 46.7674 7.20288 46.8346 7.29126C46.9243 7.35755 46.9692 7.44593 46.9692 7.5564V8.71637C46.9692 8.78266 46.9916 8.82685 47.0364 8.84894C47.0813 8.87104 47.1149 8.85999 47.1373 8.8158C48.0566 7.53431 49.4243 6.89356 51.2404 6.89356Z" fill="white"/>
<path d="M70.8102 7.12555C70.9223 7.12555 71.012 7.16974 71.0792 7.25812C71.1689 7.3244 71.2138 7.41278 71.2138 7.52326V10.6718C71.2138 10.7822 71.1689 10.8817 71.0792 10.97C71.012 11.0363 70.9223 11.0695 70.8102 11.0695H67.5479C67.4357 11.0695 67.3797 11.1247 67.3797 11.2352V23.796C67.3797 23.9065 67.3349 24.0059 67.2452 24.0943C67.1779 24.1606 67.0882 24.1937 66.9761 24.1937H63.0411C62.929 24.1937 62.8281 24.1606 62.7385 24.0943C62.6712 24.0059 62.6376 23.9065 62.6376 23.796V11.2352C62.6376 11.1247 62.5815 11.0695 62.4694 11.0695H60.4851C60.373 11.0695 60.2721 11.0363 60.1824 10.97C60.1151 10.8817 60.0815 10.7822 60.0815 10.6718V7.52326C60.0815 7.41278 60.1151 7.3244 60.1824 7.25812C60.2721 7.16974 60.373 7.12555 60.4851 7.12555H62.4694C62.5815 7.12555 62.6376 7.07032 62.6376 6.95984V6.23071C62.6376 4.86084 62.8506 3.80029 63.2766 3.04907C63.7026 2.27576 64.3864 1.73444 65.3281 1.42511C66.2923 1.09369 67.6151 0.950073 69.2967 0.994262H70.5748C70.6869 0.994262 70.7765 1.03845 70.8438 1.12683C70.9335 1.19312 70.9783 1.28149 70.9783 1.39197V4.07648C70.9783 4.18695 70.9335 4.28638 70.8438 4.37476C70.7765 4.44104 70.6869 4.47418 70.5748 4.47418H69.4649C68.6801 4.49628 68.1308 4.66199 67.8169 4.97131C67.5254 5.25855 67.3797 5.79987 67.3797 6.59528V6.95984C67.3797 7.07032 67.4357 7.12555 67.5479 7.12555H70.8102ZM76.5277 5.23645C75.7653 5.23645 75.1263 4.99341 74.6106 4.50733C74.1173 3.99915 73.8707 3.36945 73.8707 2.61823C73.8707 1.84491 74.1173 1.21521 74.6106 0.729127C75.1039 0.243042 75.7429 0 76.5277 0C77.3124 0 77.9514 0.243042 78.4447 0.729127C78.938 1.21521 79.1846 1.84491 79.1846 2.61823C79.1846 3.36945 78.9268 3.99915 78.4111 4.50733C77.9178 4.99341 77.29 5.23645 76.5277 5.23645ZM74.5097 24.1937C74.3976 24.1937 74.2967 24.1606 74.207 24.0943C74.1398 24.0059 74.1061 23.9065 74.1061 23.796V7.52326C74.1061 7.41278 74.1398 7.3244 74.207 7.25812C74.2967 7.16974 74.3976 7.12555 74.5097 7.12555H78.4447C78.5568 7.12555 78.6465 7.16974 78.7137 7.25812C78.8034 7.3244 78.8483 7.41278 78.8483 7.52326V23.796C78.8483 23.9065 78.8034 24.0059 78.7137 24.0943C78.6465 24.1606 78.5568 24.1937 78.4447 24.1937H74.5097Z" fill="white"/>
<path d="M102.008 6.89356C103.757 6.89356 105.125 7.41278 106.111 8.45124C107.098 9.48969 107.591 10.9479 107.591 12.826V23.796C107.591 23.9065 107.546 24.0059 107.457 24.0943C107.389 24.1606 107.3 24.1937 107.188 24.1937H103.253C103.141 24.1937 103.04 24.1606 102.95 24.0943C102.883 24.0059 102.849 23.9065 102.849 23.796V13.8534C102.849 12.9475 102.614 12.2294 102.143 11.6992C101.672 11.1689 101.044 10.9038 100.259 10.9038C99.4746 10.9038 98.8356 11.1689 98.3423 11.6992C97.8491 12.2294 97.6024 12.9365 97.6024 13.8203V23.796C97.6024 23.9065 97.5576 24.0059 97.4679 24.0943C97.4006 24.1606 97.311 24.1937 97.1988 24.1937H93.2975C93.1854 24.1937 93.0845 24.1606 92.9948 24.0943C92.9276 24.0059 92.8939 23.9065 92.8939 23.796V13.8534C92.8939 12.9696 92.6473 12.2626 92.154 11.7323C91.6607 11.1799 91.0217 10.9038 90.237 10.9038C89.5195 10.9038 88.9141 11.1137 88.4208 11.5335C87.95 11.9533 87.6697 12.5388 87.58 13.29V23.796C87.58 23.9065 87.5352 24.0059 87.4455 24.0943C87.3782 24.1606 87.2886 24.1937 87.1765 24.1937H83.2415C83.1294 24.1937 83.0285 24.1606 82.9388 24.0943C82.8715 24.0059 82.8379 23.9065 82.8379 23.796V7.5564C82.8379 7.44593 82.8715 7.35755 82.9388 7.29126C83.0285 7.20288 83.1294 7.1587 83.2415 7.1587H87.1765C87.2886 7.1587 87.3782 7.20288 87.4455 7.29126C87.5352 7.35755 87.58 7.44593 87.58 7.5564V8.84894C87.58 8.91523 87.6025 8.95942 87.6473 8.98151C87.6921 9.0036 87.737 8.98151 87.7818 8.91523C88.7011 7.56745 90.1249 6.89356 92.0531 6.89356C93.1742 6.89356 94.1495 7.12555 94.9791 7.58954C95.8311 8.05353 96.4814 8.71637 96.9298 9.57807C96.9971 9.71064 97.0755 9.71064 97.1652 9.57807C97.6585 8.67218 98.3199 7.99829 99.1495 7.5564C100.002 7.1145 100.954 6.89356 102.008 6.89356Z" fill="white"/>
<path d="M118.15 6.89356C119.608 6.89356 120.908 7.14765 122.052 7.65583C123.195 8.14191 124.081 8.8158 124.709 9.67749C125.359 10.5392 125.684 11.5003 125.684 12.5609V23.796C125.684 23.9065 125.639 24.0059 125.549 24.0943C125.482 24.1606 125.393 24.1937 125.28 24.1937H121.345C121.233 24.1937 121.132 24.1606 121.043 24.0943C120.975 24.0059 120.942 23.9065 120.942 23.796V22.7023C120.942 22.6361 120.919 22.5919 120.875 22.5698C120.83 22.5477 120.785 22.5698 120.74 22.6361C119.798 23.8513 118.285 24.4589 116.2 24.4589C114.451 24.4589 113.038 24.0391 111.962 23.1995C110.886 22.3599 110.348 21.1226 110.348 19.4876C110.348 17.7863 110.953 16.4716 112.164 15.5436C113.375 14.5936 115.101 14.1185 117.343 14.1185H120.774C120.886 14.1185 120.942 14.0633 120.942 13.9528V13.2237C120.942 12.4946 120.718 11.9312 120.269 11.5335C119.821 11.1137 119.148 10.9038 118.251 10.9038C117.556 10.9038 116.973 11.0253 116.502 11.2683C116.054 11.5114 115.763 11.8538 115.628 12.2957C115.561 12.5388 115.415 12.6492 115.191 12.6271L111.121 12.0969C110.852 12.0527 110.729 11.9533 110.751 11.7986C110.841 10.8706 111.211 10.031 111.861 9.27979C112.534 8.52857 113.408 7.94306 114.484 7.52326C115.583 7.10346 116.805 6.89356 118.15 6.89356ZM117.478 20.979C118.442 20.979 119.26 20.7249 119.933 20.2167C120.606 19.7085 120.942 19.0567 120.942 18.2613V17.0682C120.942 16.9577 120.886 16.9025 120.774 16.9025H118.352C117.343 16.9025 116.547 17.0903 115.964 17.4659C115.404 17.8415 115.123 18.3718 115.123 19.0567C115.123 19.6533 115.336 20.1283 115.763 20.4818C116.189 20.8132 116.76 20.979 117.478 20.979Z" fill="white"/>
</svg>
